<?xml version="1.0" encoding="utf-8"?>
<!-- Generator: Adobe Illustrator 25.4.1, SVG Export Plug-In . SVG Version: 6.00 Build 0)  -->
<svg version="1.1" id="Capa_1" xmlns="http://www.w3.org/2000/svg" xmlns:xlink="http://www.w3.org/1999/xlink" x="0px" y="0px"
	 viewBox="0 0 60.1 61.1" style="enable-background:new 0 0 60.1 61.1;" xml:space="preserve">
<style type="text/css">
	.st0{fill:#E0E0E0;}
	.st1{fill:#FFFFFF;}
</style>
<g>
	<path class="st0" d="M13.8,59.6L13.8,59.6c-0.6,0-1.1-0.5-1.1-1.1V10.9c0-0.6,0.5-1.1,1.1-1.1l0,0c0.6,0,1.1,0.5,1.1,1.1v47.6
		C14.9,59.1,14.4,59.6,13.8,59.6z"/>
	<g>
		<circle class="st0" cx="13.7" cy="11.3" r="10.1"/>
		<g>
			<g>
				<g>
					<path class="st1" d="M13.7,2.6C8.9,2.6,5,6.5,5,11.3S8.9,20,13.7,20s8.7-3.9,8.7-8.7S18.5,2.6,13.7,2.6z M13.7,19.3
						c-4.4,0-8-3.6-8-8s3.6-8,8-8s8,3.6,8,8S18.1,19.3,13.7,19.3z"/>
					<path class="st1" d="M11.8,9.8c0-0.6-0.5-1.1-1.1-1.1S9.6,9.2,9.6,9.8s0.5,1.1,1.1,1.1C11.3,10.9,11.8,10.4,11.8,9.8z"/>
					<path class="st1" d="M16.7,8.6c-0.6,0-1.1,0.5-1.1,1.1s0.5,1.1,1.1,1.1s1.1-0.5,1.1-1.1C17.8,9.2,17.3,8.6,16.7,8.6z"/>
					<path class="st1" d="M13.7,13.2c-1.4,0-2.8,0.6-3.7,1.6c-0.1,0.2-0.1,0.4,0,0.5c0.2,0.1,0.4,0.1,0.5,0c0.8-0.9,1.9-1.4,3.1-1.4
						s2.3,0.5,3.1,1.4c0.1,0.1,0.2,0.1,0.3,0.1s0.2,0,0.3-0.1c0.2-0.1,0.2-0.4,0-0.5C16.4,13.8,15.1,13.2,13.7,13.2z"/>
				</g>
			</g>
		</g>
	</g>
</g>
<g>
	<path class="st0" d="M22,51.5c-0.6,0.1,0.3,3.6,1.6,4c1.3,0.4,28.7,0.8,29.8,0.1s1.2-3.6,1.1-4C54.3,51.3,23.7,51.2,22,51.5z"/>
	<path class="st0" d="M23.6,56.4c0,0,4.1,0.4,5.3,0.3c0,0,0.6,1.9,0,2.5c-0.6,0.7-4.3,0.4-4.9-0.2C23.4,58.4,23.6,56.4,23.6,56.4z"
		/>
	<path class="st0" d="M52.5,56.4c0,0-4.1,0.4-5.3,0.3c0,0-0.6,1.9,0,2.5c0.6,0.7,4.3,0.4,4.9-0.2C52.7,58.4,52.5,56.4,52.5,56.4z"/>
	<path class="st0" d="M54.1,42.8c-1.2-1-30.4-1.2-31.9,0.3c-1.3,1.2-0.3,7-0.1,7.4c0.3,0.4,30.9,0.6,32.2,0.2
		C55.6,50.2,55.3,43.8,54.1,42.8z M28.5,48.9c-2.7,2.1-5.9-3.4-2.8-4.6C29.6,42.8,31.1,46.9,28.5,48.9z M41.6,49
		c-2.7,0.3-5.6,0.5-8.2,0c-0.2,0-0.2-0.3,0-0.4c2.7-0.4,5.5-0.3,8.2-0.3C42.1,48.3,42,48.9,41.6,49z M41.6,47.1
		c-2.7,0.3-5.6,0.5-8.2,0c-0.2,0-0.2-0.3,0-0.4c2.7-0.4,5.5-0.3,8.2-0.3C42.1,46.4,42,47,41.6,47.1z M41.6,45.2
		c-2.7,0.3-5.6,0.5-8.2,0c-0.2,0-0.2-0.3,0-0.4c2.7-0.4,5.5-0.3,8.2-0.3C42.1,44.5,42,45.1,41.6,45.2z M47.9,48.9
		c-2.7-2.1-1.1-6.1,2.8-4.6C53.8,45.5,50.5,51,47.9,48.9z"/>
	<path class="st0" d="M23.8,41.7c0,0,1.7-8,2.6-9.4c0.9-1.3,3.2-1.7,4-1.8c0.8-0.1,15.8-0.6,17.1,0.9c1.3,1.6,3.9,10.1,3.9,10.1
		s-1.7-0.1-2-0.2c0,0-2.6-8-3.1-8.6S29.8,32,28.8,32.6c-1,0.6-2.9,9-2.9,9S24.5,41.6,23.8,41.7z"/>
	<path class="st0" d="M51.8,38.8c-0.7,0.2-0.5,2.2,0.5,2.5c1,0.4,3.8,0.5,4.2-1.1C56.9,38.7,53.9,38,51.8,38.8z"/>
	<path class="st0" d="M23,38.8c0.7,0.2,0.5,2.2-0.5,2.5c-1,0.4-3.8,0.5-4.2-1.1C17.8,38.7,20.9,38,23,38.8z"/>
	<path class="st0" d="M31.8,29.9c0,0,10-0.4,11.4,0.1c0.4,0.1-0.6-4.1-1.2-4.3c-0.6-0.2-8.3-0.4-9-0.1
		C32.3,25.8,31.4,29.6,31.8,29.9z"/>
</g>
<path class="st0" d="M56,59.9H8.1c-0.3,0-0.6-0.3-0.6-0.6l0,0c0-0.3,0.3-0.6,0.6-0.6H56c0.3,0,0.6,0.3,0.6,0.6l0,0
	C56.6,59.6,56.3,59.9,56,59.9z"/>
</svg>
