<svg xmlns="http://www.w3.org/2000/svg" width="22.465" height="22.465" viewBox="0 0 22.465 22.465"><defs><style>.a{fill:#fff;}</style></defs><g transform="translate(-22.763 -22.609)"><path class="a" d="M45.228,33.051a2.212,2.212,0,0,1-.267.443.81.81,0,0,1-.908.2.844.844,0,0,1-.572-.738,2.5,2.5,0,0,1-.007-.307q0-2.314,0-4.627a1.774,1.774,0,0,0-1.9-1.905h-1c0,.307.011.6,0,.9a.871.871,0,0,1-1.337.718.855.855,0,0,1-.413-.754c0-.277,0-.555,0-.848H34.83c0,.259,0,.519,0,.779a.881.881,0,1,1-1.754,0c0-.255,0-.51,0-.779H29.127c0,.264,0,.525,0,.786a.88.88,0,1,1-1.754.01c0-.262,0-.523,0-.835a10.517,10.517,0,0,0-1.515.093,1.7,1.7,0,0,0-1.334,1.685c-.007.226,0,.453,0,.68q0,6.437,0,12.874a1.719,1.719,0,0,0,1.006,1.7,2.2,2.2,0,0,0,.889.18c2.157.015,4.313.009,6.47.006a.934.934,0,0,1,.75.291.835.835,0,0,1,.17.9.851.851,0,0,1-.725.559,1.252,1.252,0,0,1-.175.007c-2.2,0-4.4.007-6.6,0a3.5,3.5,0,0,1-3.463-2.819,3.135,3.135,0,0,1-.069-.63c0-4.6-.013-9.2,0-13.8A3.455,3.455,0,0,1,25.6,24.44a7.594,7.594,0,0,1,1.112-.074c.211-.01.423,0,.664,0,0-.228.012-.445,0-.66a.97.97,0,0,1,.7-1.095h.351a.97.97,0,0,1,.7,1.093c-.014.215,0,.432,0,.647h3.949c0-.226.012-.437,0-.647a.969.969,0,0,1,.7-1.093h.351a.97.97,0,0,1,.7,1.093c-.014.215,0,.432,0,.647h3.992c0-.226.012-.437,0-.647a.969.969,0,0,1,.7-1.093h.351a.97.97,0,0,1,.7,1.093c-.014.215,0,.432,0,.665.437,0,.846-.019,1.252,0a3.41,3.41,0,0,1,3.033,1.973,7.373,7.373,0,0,1,.365,1.135Z"/><path class="a" d="M76.91,71.875a14.443,14.443,0,0,1-.38,1.5,5.274,5.274,0,0,1-5.744,3.3,5.083,5.083,0,0,1-4.216-3.6,5.293,5.293,0,0,1,6.553-6.7,5.124,5.124,0,0,1,3.7,4.181c.03.15.056.3.083.45Zm-1.756-.438A3.553,3.553,0,1,0,71.6,74.99,3.564,3.564,0,0,0,75.155,71.438Z" transform="translate(-31.682 -31.673)"/><path class="a" d="M41.472,54.141a.876.876,0,1,1-.891-.866A.881.881,0,0,1,41.472,54.141Z" transform="translate(-12.346 -22.328)"/><path class="a" d="M55.511,54.143a.876.876,0,1,1-.889-.868A.88.88,0,0,1,55.511,54.143Z" transform="translate(-22.569 -22.328)"/><path class="a" d="M69.549,54.154a.876.876,0,1,1-.878-.879A.88.88,0,0,1,69.549,54.154Z" transform="translate(-32.79 -22.329)"/><path class="a" d="M83.589,54.144a.876.876,0,1,1-.888-.869A.88.88,0,0,1,83.589,54.144Z" transform="translate(-43.013 -22.328)"/><path class="a" d="M40.594,69.065a.876.876,0,1,1,.877-.88A.88.88,0,0,1,40.594,69.065Z" transform="translate(-12.346 -32.55)"/><path class="a" d="M55.511,68.179a.876.876,0,1,1-.892-.866A.881.881,0,0,1,55.511,68.179Z" transform="translate(-22.569 -32.55)"/><path class="a" d="M40.583,83.1a.876.876,0,1,1,.888-.869A.88.88,0,0,1,40.583,83.1Z" transform="translate(-12.346 -42.773)"/><path class="a" d="M55.51,82.233a.876.876,0,1,1-.877-.88A.88.88,0,0,1,55.51,82.233Z" transform="translate(-22.568 -42.773)"/><path class="a" d="M84.38,77.666c.156,0,.286-.005.415,0a.875.875,0,0,1,0,1.749c-.43.011-.862.011-1.292,0a.86.86,0,0,1-.869-.861q-.017-.909,0-1.818a.874.874,0,0,1,1.749,0C84.388,77.033,84.38,77.332,84.38,77.666Z" transform="translate(-43.584 -38.778)"/></g></svg>