<svg xmlns="http://www.w3.org/2000/svg" width="26.086" height="34.009" viewBox="0 0 26.086 34.009"><defs><style>.a{fill:#d4d4d4;stroke:rgba(0,0,0,0);stroke-miterlimit:10;}</style></defs><path class="a" d="M-8710.106-7.991h-2.129a2.245,2.245,0,0,0-2.22-1.87A2.245,2.245,0,0,0-8716.672-8h-4.216a6.708,6.708,0,0,1,2.847-3.764.473.473,0,0,1,.041-.025,6.84,6.84,0,0,1,2.825-.974l.068-.01.013,0,.06-.008.091-.011.082-.009c.2-.017.387-.025.562-.025a5.988,5.988,0,0,1,1.872.309,6.561,6.561,0,0,1,4.378,4.361.775.775,0,0,1,.021.1c0,.02,0,.038.007.057h-2.089l0,.011Zm8.193-.01h-4.116a6.843,6.843,0,0,0-.956-2.506,8.512,8.512,0,0,0-7.383-4.249,8.669,8.669,0,0,0-1.492.13c-.048.015-.106.027-.154.038l-.009,0a9.576,9.576,0,0,0-3.437,1.408l-.169.138c-.266.216-.54.44-.8.68a8.573,8.573,0,0,0-2.422,4.136,1.065,1.065,0,0,0-.023.142v.012c0,.022,0,.044-.007.066H-8727c0-.325,0-.65,0-.975v-.487c0-1.248,0-2.293,0-3.338a4.788,4.788,0,0,1,3.388-4.615.28.28,0,0,1,.065-.012h.006c.011,0,1.1-.1,2.78-.2a.11.11,0,0,0-.015-.017l.117-.01c.071-.007.131-.012.189-.012l6.848,0c2.561,0,4.8,0,6.846,0a4.828,4.828,0,0,1,4.856,4.866c0,1.071,0,2.152,0,3.2v.8q0,.4,0,.8Zm-12.518-11.6a6.749,6.749,0,0,1-4.009-1.344,6.889,6.889,0,0,1-2.518-3.69,10.2,10.2,0,0,1-.249-2.867c0-.217,0-.442,0-.665a12.327,12.327,0,0,0,6.737,1.667h.023a12.235,12.235,0,0,0,6.7-1.643c.318,3.29-.632,5.681-2.9,7.311A6.448,6.448,0,0,1-8714.431-19.606Zm-.073-8.813a13.216,13.216,0,0,1-4.552-.809,6.5,6.5,0,0,1-1.488-.866,1.547,1.547,0,0,1-.661-1.221h13.5a1.8,1.8,0,0,1-.75,1.307,5.463,5.463,0,0,1-2.058,1.021A14.878,14.878,0,0,1-8714.5-28.419Zm-7.732-4.839a.5.5,0,0,1-.53-.338,3.973,3.973,0,0,1,.518-4.188,7.025,7.025,0,0,1,3.737-2.548,16.76,16.76,0,0,1,1.964-.438c.3-.054.611-.11.916-.174.053-.011.108-.027.153-.04l.006,0,.054-.015h1.929c.165.026.33.05.5.074l.032,0c.37.053.747.108,1.114.183a8.544,8.544,0,0,1,4.777,2.459,4.234,4.234,0,0,1,1.173,4.02.212.212,0,0,0,0,.025.363.363,0,0,1-.008.036c-.255.9-.3.932-1.217.932h-5.037C-8715.361-33.266-8718.8-33.265-8722.236-33.258Z" transform="translate(8727.498 41.5)"/></svg>