<?xml version="1.0" encoding="utf-8"?>
<!-- Generator: Adobe Illustrator 25.4.1, SVG Export Plug-In . SVG Version: 6.00 Build 0)  -->
<svg version="1.1" id="Layer_1" xmlns="http://www.w3.org/2000/svg" xmlns:xlink="http://www.w3.org/1999/xlink" x="0px" y="0px"
	 viewBox="0 0 150 150" style="enable-background:new 0 0 150 150;" xml:space="preserve">
<g>
	<g id="Group_9228" transform="translate(10.45 7.448)">
		<path id="Path_21531" style="fill:#FFFFFF;" d="M3.1,126.6V83c0.1-0.3,0.2-0.7,0.3-1c0.8-4.3,3.3-8.1,7-10.5
			c0.5-0.4,0.9-0.9,1.1-1.5c3.4-10.5,6.8-21.1,10.3-31.6c0.4-1.2,0.9-2.4,1.5-3.5c2.8-5,8.2-8,13.9-7.8c2.3,0,4.5,0,6.9,0V16.5h10.5
			v0v10.4h10.5V16.5l0,0h10.5v0v10.5h10.5V16.5v0h10.6V27c2.4,0,4.6,0,6.8,0c7.1-0.1,13.5,4.5,15.5,11.3c3.4,10.5,6.8,21,10.2,31.6
			c0.2,0.6,0.5,1.1,1,1.5c4.8,3.1,7.6,8.4,7.4,14.1c0,12.8,0,25.7,0,38.5c0,1-0.1,2.1-0.2,3.1c-1.4,8.6-9.4,14.4-18,13.1
			c-6.7-1.1-12-6.3-13.1-13.1c-0.2-1.7-0.3-3.4-0.4-5H34.6c0,1.1,0,2,0,3c-0.3,8.7-7.5,15.5-16.2,15.3c-4.8-0.1-9.3-2.5-12.1-6.3
			C4.6,131.9,3.6,129.3,3.1,126.6z M70.4,79.6H19.6c-2.9-0.4-5.6,1.7-6,4.7c-0.1,0.4-0.1,0.9,0,1.3c0,6.7,0,13.4,0,20.1
			c-0.3,2.9,1.8,5.6,4.7,5.9c0.4,0,0.8,0,1.2,0h101.7c2.9,0.3,5.6-1.8,5.9-4.7c0-0.4,0-0.8,0-1.2c0-6.6,0-13.2,0-19.8
			c0.5-3-1.5-5.8-4.5-6.3c-0.6-0.1-1.2-0.1-1.8,0L70.4,79.6z M22.8,69h95c-0.1-0.5-0.3-0.9-0.4-1.3l-8.2-25.5
			c-0.5-3.1-3.4-5.1-6.5-4.7H37.9c-3.1-0.5-6,1.6-6.5,4.7c-1.6,5.1-3.3,10.1-4.9,15.2C25.3,61.3,24.1,65.1,22.8,69L22.8,69z
			 M13.6,121.6c-0.1,1.2-0.1,2.5,0,3.7c0.3,2.9,2.9,4.9,5.8,4.6c0.9-0.1,1.8-0.5,2.6-1c1.9-1.6,2.7-4.2,2-6.6L13.6,121.6z
			 M116.6,122.3c-0.1,1-0.1,2,0,3.1c0.3,2.5,2.4,4.5,4.9,4.6c2.5,0.2,4.8-1.5,5.3-4c0.2-1.5,0.3-2.9,0.3-4.4L116.6,122.3z"/>
		<path id="Path_21532" style="fill:#FFFFFF;" d="M54.6,16.5V6h10.5v10.5l0,0H54.6L54.6,16.5z"/>
		<path id="Path_21533" style="fill:#FFFFFF;" d="M75.6,16.5V6h10.5v10.5v0L75.6,16.5L75.6,16.5z"/>
		<path id="Path_21534" style="fill:#FFFFFF;" d="M90,93.3v10.4H50.7V93.3H90z"/>
		<path id="Path_21535" style="fill:#FFFFFF;" d="M34.6,93.2c0,2.9-2.3,5.3-5.2,5.3c-2.9,0-5.3-2.3-5.3-5.2c0-2.9,2.3-5.2,5.1-5.3
			C32.1,87.9,34.5,90.3,34.6,93.2C34.6,93.2,34.6,93.2,34.6,93.2z"/>
		<path id="Path_21536" style="fill:#FFFFFF;" d="M111.3,88c2.9,0,5.3,2.3,5.3,5.2c0,2.9-2.3,5.3-5.2,5.3c-2.9,0-5.2-2.3-5.3-5.1
			C106,90.4,108.3,88,111.3,88C111.2,88,111.2,88,111.3,88z"/>
	</g>
	<g id="toggle_icon" transform="translate(8.798 5.798)">
		<g transform="matrix(1, 0, 0, 1, -8.8, -5.8)">
			<g id="Ellipse_267-2" transform="translate(9 6)">
				<g>
					<path d="M27.9,61.3c-16.8,0-30.5-13.7-30.5-30.5S11.1,0.4,27.9,0.4S58.4,14,58.4,30.8S44.7,61.3,27.9,61.3z"/>
					<path style="fill:#FFFFFF;" d="M27.9,4.4c14.6,0,26.5,11.9,26.5,26.5S42.5,57.3,27.9,57.3S1.4,45.4,1.4,30.8S13.3,4.4,27.9,4.4
						 M27.9-3.6c-19,0-34.5,15.4-34.5,34.5S8.8,65.3,27.9,65.3s34.5-15.4,34.5-34.5S46.9-3.6,27.9-3.6L27.9-3.6z"/>
				</g>
			</g>
		</g>
		<g id="done_icon" transform="translate(1.757 1.757)">
			<path id="Path_21414" style="fill:none;" d="M3.4,6.4h43.8v43.8H3.4V6.4z"/>
			<path id="Path_21415" style="fill:#FFFFFF;stroke:#FFFFFF;stroke-width:0.3;" d="M19.8,35.9l-7.5-7.6l-2.6,2.6l10.1,10.2
				l21.9-21.9l-2.5-2.6L19.8,35.9z"/>
		</g>
	</g>
</g>
</svg>
