<svg xmlns="http://www.w3.org/2000/svg" xmlns:xlink="http://www.w3.org/1999/xlink" width="28.004" height="27" viewBox="0 0 28.004 27"><defs><style>.a,.d{fill:#fff;}.b,.d{stroke:#fff;}.c{fill:none;}.d{stroke-width:0.3px;}.e{stroke:none;}.f{filter:url(#a);}</style><filter id="a" x="0" y="0" width="27" height="27" filterUnits="userSpaceOnUse"><feOffset dy="3" input="SourceAlpha"/><feGaussianBlur stdDeviation="3" result="b"/><feFlood flood-opacity="0.161"/><feComposite operator="in" in2="b"/><feComposite in="SourceGraphic"/></filter></defs><g transform="translate(-19.202 -128.202)"><g transform="translate(29.653 135.65)"><path class="a" d="M23.6,44.225V38.534c.012-.043.027-.085.036-.128a2.076,2.076,0,0,1,.918-1.368.4.4,0,0,0,.138-.2c.449-1.376.891-2.753,1.34-4.129a2.184,2.184,0,0,1,.2-.452,2.035,2.035,0,0,1,1.819-1.024c.295,0,.59,0,.9,0V29.863h1.369l0-.005V31.22h1.376V29.858l0,0h1.376l0-.005V31.22h1.376V29.858l0,.005h1.382v1.369c.31,0,.6,0,.892,0a2.063,2.063,0,0,1,2.018,1.481q.667,2.059,1.336,4.117a.406.406,0,0,0,.133.2,2.089,2.089,0,0,1,.961,1.844c0,1.674,0,3.348,0,5.022a2.842,2.842,0,0,1-.03.409,2.05,2.05,0,0,1-4.05,0c-.031-.217-.033-.439-.048-.656H27.712c0,.138,0,.264,0,.389a2.055,2.055,0,0,1-3.7,1.167A2.47,2.47,0,0,1,23.6,44.225Zm8.785-6.137H25.752a.7.7,0,0,0-.78.784q0,1.311,0,2.623a.7.7,0,0,0,.772.775H39.01a.7.7,0,0,0,.772-.776q0-1.294,0-2.588a.712.712,0,0,0-.815-.819Zm-6.206-1.381H38.569c-.019-.065-.034-.12-.051-.173l-1.071-3.322a.745.745,0,0,0-.845-.61H28.151a.745.745,0,0,0-.846.61q-.321.993-.642,1.986C26.5,35.7,26.343,36.2,26.179,36.708Zm-1.2,6.868a4.589,4.589,0,0,0,0,.486.681.681,0,0,0,1.086.469.855.855,0,0,0,.267-.863Zm13.439.093a3.624,3.624,0,0,0,0,.4.681.681,0,0,0,.644.6.66.66,0,0,0,.69-.52,3.911,3.911,0,0,0,.035-.575Z" transform="translate(-23.6 -28.489)"/><path class="a" d="M54.312,24.974l0-1.374h1.371l0,1.374,0,0H54.307Z" transform="translate(-47.59 -23.6)"/><path class="a" d="M66.85,24.974l0-1.374h1.371l0,1.374,0-.005H66.845Z" transform="translate(-57.385 -23.6)"/><path class="a" d="M57.15,75.686v1.351H52.029V75.686Z" transform="translate(-45.81 -64.292)"/><path class="a" d="M37.513,73.182a.684.684,0,1,1-.7-.678A.688.688,0,0,1,37.513,73.182Z" transform="translate(-33.4 -61.806)"/><path class="a" d="M85.72,72.5a.684.684,0,1,1-.678.7A.688.688,0,0,1,85.72,72.5Z" transform="translate(-71.602 -61.806)"/></g><g transform="translate(28 134)"><g class="f" transform="matrix(1, 0, 0, 1, -8.8, -5.8)"><g class="b" transform="translate(9 6)"><circle class="e" cx="4.5" cy="4.5" r="4.5"/><circle class="c" cx="4.5" cy="4.5" r="4"/></g></g><g transform="translate(1.757 1.757)"><path class="c" d="M0,0H5.632V5.632H0Z"/><path class="d" d="M8.2,13.676,7.229,12.7,6.9,13.03l1.3,1.314,2.816-2.816L10.69,11.2Z" transform="translate(-6.09 -9.886)"/></g></g></g></svg>