<svg xmlns="http://www.w3.org/2000/svg" width="17.39" height="20.429" viewBox="0 0 17.39 20.429"><defs><style>.a,.b{fill:none;}.a{stroke:#fcfcfc;stroke-miterlimit:10;stroke-width:0.8px;}.b{stroke:#fff;stroke-width:0.7px;}.c{fill:#fff;}</style></defs><g transform="translate(210.535 249.4)"><path class="a" d="M-199.281-249a6.569,6.569,0,0,1,1.026.338,2.975,2.975,0,0,1,1.692,2.674.759.759,0,0,1-.732.82.77.77,0,0,1-.8-.758,1.542,1.542,0,0,0-1.653-1.54q-3.6,0-7.205,0a1.545,1.545,0,0,0-1.647,1.641q0,6.64,0,13.28a1.545,1.545,0,0,0,1.647,1.641q3.6,0,7.205,0a1.542,1.542,0,0,0,1.653-1.539.77.77,0,0,1,.8-.758.769.769,0,0,1,.735.82,3.077,3.077,0,0,1-2.6,2.974.828.828,0,0,0-.124.038h-8.127c-.215-.055-.434-.095-.643-.168a3.065,3.065,0,0,1-2.079-2.978q0-6.18,0-12.36c0-.383-.015-.767.006-1.15a2.979,2.979,0,0,1,1.724-2.654,6.434,6.434,0,0,1,.993-.32Z" transform="translate(0)"/><path class="b" d="M16.072-99.056c-.183-.053-.478-.131-.767-.228a.343.343,0,0,0-.383.067.709.709,0,0,1-.238.157.513.513,0,0,0-.36.517,4.349,4.349,0,0,1-.081.53.758.758,0,0,1-.751.639q-.354.009-.709,0a.737.737,0,0,1-.722-.575c-.064-.267-.1-.541-.159-.807a.52.52,0,0,0-.152-.215c-.043-.043-.122-.05-.165-.093a.553.553,0,0,0-.693-.067,4.03,4.03,0,0,1-.561.189.718.718,0,0,1-.817-.312,6.974,6.974,0,0,1-.4-.72.731.731,0,0,1,.213-.9c.209-.177.431-.34.647-.51a.386.386,0,0,0-.014-.557c-.188-.132-.381-.258-.567-.393a.764.764,0,0,1-.263-1.028c.1-.2.2-.4.3-.6a.763.763,0,0,1,.935-.4c.209.057.416.121.625.182.049.014.1.032.146.045a1.183,1.183,0,0,0,.765-.519c.036-.253.061-.508.112-.757a.743.743,0,0,1,.725-.621c.255-.011.511-.011.766,0a.761.761,0,0,1,.737.635c.052.256.087.516.145.771a.468.468,0,0,0,.133.184c.029.031.085.035.116.065a.618.618,0,0,0,.794.06,2.857,2.857,0,0,1,.448-.166.748.748,0,0,1,.895.335c.132.218.257.441.372.669a.752.752,0,0,1-.209.964c-.207.171-.423.331-.632.5a.335.335,0,0,0,.009.505c.19.14.384.276.574.415a.774.774,0,0,1,.261,1.074c-.1.195-.191.39-.3.579A.8.8,0,0,1,16.072-99.056Zm-1.4-2.646a1.535,1.535,0,0,0-1.516-1.534,1.551,1.551,0,0,0-1.55,1.525,1.539,1.539,0,0,0,1.531,1.539A1.527,1.527,0,0,0,14.672-101.7Z" transform="translate(-210.767 -137.479)"/><path class="c" d="M-71.433-176.557c-.255,0-.511,0-.766,0a.762.762,0,0,1-.767-.747.749.749,0,0,1,.717-.775c.542-.021,1.086-.021,1.628,0a.749.749,0,0,1,.719.792.761.761,0,0,1-.764.731C-70.922-176.552-71.178-176.557-71.433-176.557Z" transform="translate(-131.91 -68.186)"/><path class="c" d="M-52.21,153.651a.765.765,0,0,1-.754-.779.773.773,0,0,1,.767-.751.773.773,0,0,1,.764.773A.765.765,0,0,1-52.21,153.651Z" transform="translate(-151.146 -385.743)"/></g></svg>