<svg xmlns="http://www.w3.org/2000/svg" width="10.465" height="10.067" viewBox="0 0 10.465 10.067"><defs><style>.a{fill:#ff9702;}</style></defs><g transform="translate(-13.936 -15.838)"><path class="a" d="M15.889,25.905l.339-1.335q.3-1.163.594-2.325a.131.131,0,0,0-.049-.157Q15.4,20.924,14.02,19.754c-.023-.019-.044-.04-.084-.076.159-.012.3-.023.434-.032l2.317-.151c.327-.021.653-.045.98-.061.077,0,.085-.056.1-.1q.494-1.238.986-2.476l.363-.91c.012-.03.026-.059.047-.105.025.056.043.094.059.134q.667,1.674,1.331,3.35a.155.155,0,0,0,.161.115c.793.048,1.585.1,2.378.154l1.072.069c.07,0,.14.011.235.018l-.335.286q-1.244,1.055-2.491,2.107a.165.165,0,0,0-.062.2q.455,1.765.9,3.532c.007.026.011.053.02.1-.044-.026-.077-.044-.109-.064q-1.534-.969-3.066-1.941a.15.15,0,0,0-.19,0q-1.527.97-3.058,1.935Z" transform="translate(0 0)"/></g></svg>