<svg xmlns="http://www.w3.org/2000/svg" width="14.711" height="19.629" viewBox="0 0 14.711 19.629"><defs><style>.a{fill:#fff;}</style></defs><g transform="translate(-409.924 -1013)"><path class="a" d="M417.78,1013c.169.026.338.053.508.077a7.365,7.365,0,0,1,6.157,5.616,7.387,7.387,0,0,1-.2,4.02,16.658,16.658,0,0,1-1.754,3.688,35.336,35.336,0,0,1-4.668,5.934.64.64,0,0,1-1.077,0,33.657,33.657,0,0,1-5.2-6.845,12.66,12.66,0,0,1-1.525-4.022,6.919,6.919,0,0,1,.186-3.107,7.379,7.379,0,0,1,6.467-5.331.649.649,0,0,0,.109-.029Zm-.508,18.146c.056-.069.079-.1.1-.127a35.868,35.868,0,0,0,3.98-5.119,15.021,15.021,0,0,0,1.816-3.887,5.869,5.869,0,0,0,.107-2.916,6.025,6.025,0,0,0-2.956-4.052,6.116,6.116,0,0,0-9.036,6.52,12.3,12.3,0,0,0,1.485,3.612,28.088,28.088,0,0,0,2.7,3.853C416.054,1029.735,416.655,1030.421,417.272,1031.146Z"/><path class="a" d="M490.245,1089.663a3.679,3.679,0,1,1-3.683,3.679A3.691,3.691,0,0,1,490.245,1089.663Zm0,1.227a2.452,2.452,0,1,0,2.45,2.45A2.459,2.459,0,0,0,490.243,1090.889Z" transform="translate(-72.959 -72.983)"/></g></svg>